<?xml version="1.0" encoding="UTF-8" standalone="no"?>
<!DOCTYPE svg PUBLIC "-//W3C//DTD SVG 1.1//EN" "http://www.w3.org/Graphics/SVG/1.1/DTD/svg11.dtd">
<svg width="100%" height="100%" viewBox="0 0 1024 500" version="1.1" xmlns="http://www.w3.org/2000/svg" xmlns:xlink="http://www.w3.org/1999/xlink" xml:space="preserve" xmlns:serif="http://www.serif.com/" style="fill-rule:evenodd;clip-rule:evenodd;stroke-linejoin:round;stroke-miterlimit:2;">
    <g transform="matrix(26.2564,0,0,11.9048,-1234.05,-464.286)">
        <rect x="47" y="39" width="39" height="42" style="fill:rgb(0,167,170);"/>
    </g>
    <g transform="matrix(1,0,0,1,-44.775,56.725)">
        <text x="89px" y="182px" style="font-family:'Brilors', 'Brilors ';font-size:350px;fill:rgb(238,238,238);fill-opacity:0.2;">sa<tspan x="436.2px " y="182px ">v</tspan></text>
        <g transform="matrix(350,0,0,350,1026.65,382)">
        </g>
        <text x="89px" y="382px" style="font-family:'Brilors', 'Brilors ';font-size:350px;fill:rgb(238,238,238);fill-opacity:0.2;">mr<tspan x="619.25px " y="382px ">l</tspan>.it</text>
    </g>
    <g transform="matrix(1,0,0,1,21.0315,-44)">
        <g>
            <g transform="matrix(1,0,0,1,408.412,486)">
                <path d="M1.51,-0.692C1.529,-0.908 1.562,-1.153 1.609,-1.426C1.656,-1.652 1.72,-1.922 1.8,-2.237C1.88,-2.553 2,-2.894 2.16,-3.261C2.668,-3.091 3.185,-2.941 3.712,-2.809C4.164,-2.696 4.658,-2.593 5.195,-2.498C5.731,-2.404 6.244,-2.357 6.733,-2.357C7.477,-2.357 8.1,-2.414 8.604,-2.527C9.107,-2.64 9.512,-2.807 9.817,-3.028C10.123,-3.249 10.342,-3.527 10.474,-3.861C10.606,-4.195 10.671,-4.583 10.671,-5.025C10.671,-5.524 10.603,-5.947 10.467,-6.296C10.33,-6.644 10.123,-6.945 9.846,-7.199C9.568,-7.453 9.213,-7.67 8.78,-7.848C8.347,-8.027 7.834,-8.201 7.241,-8.371C6.206,-8.653 5.331,-8.961 4.616,-9.295C3.901,-9.629 3.32,-10.013 2.873,-10.446C2.426,-10.879 2.103,-11.37 1.906,-11.921C1.708,-12.471 1.609,-13.099 1.609,-13.805C1.609,-14.822 1.767,-15.692 2.082,-16.417C2.397,-17.141 2.844,-17.734 3.423,-18.195C4.002,-18.656 4.703,-18.995 5.526,-19.211C6.35,-19.428 7.27,-19.536 8.286,-19.536C9.067,-19.536 9.752,-19.475 10.34,-19.353C10.928,-19.23 11.424,-19.099 11.829,-18.957C12.299,-18.788 12.709,-18.595 13.057,-18.379C13.029,-18.162 12.972,-17.927 12.888,-17.673C12.812,-17.456 12.709,-17.202 12.577,-16.911C12.445,-16.619 12.262,-16.304 12.027,-15.965C11.744,-16.153 11.415,-16.322 11.038,-16.473C10.709,-16.605 10.312,-16.725 9.846,-16.833C9.38,-16.941 8.841,-16.995 8.229,-16.995C7.561,-16.995 6.999,-16.944 6.543,-16.84C6.086,-16.737 5.712,-16.574 5.42,-16.353C5.129,-16.132 4.919,-15.854 4.792,-15.52C4.665,-15.186 4.602,-14.789 4.602,-14.327C4.602,-13.81 4.668,-13.379 4.799,-13.036C4.931,-12.692 5.143,-12.401 5.435,-12.161C5.726,-11.921 6.105,-11.711 6.571,-11.533C7.037,-11.354 7.599,-11.17 8.258,-10.982C9.246,-10.709 10.088,-10.417 10.784,-10.107C11.481,-9.796 12.048,-9.434 12.485,-9.02C12.923,-8.606 13.243,-8.114 13.445,-7.545C13.648,-6.976 13.749,-6.291 13.749,-5.491C13.749,-4.503 13.622,-3.644 13.368,-2.915C13.114,-2.186 12.709,-1.576 12.154,-1.087C11.598,-0.598 10.883,-0.233 10.008,0.007C9.133,0.247 8.079,0.367 6.846,0.367C6.112,0.367 5.42,0.313 4.771,0.205C4.122,0.096 3.557,-0.024 3.077,-0.155C2.503,-0.315 1.981,-0.494 1.51,-0.692Z" style="fill:white;"/>
            </g>
            <g transform="matrix(1,0,0,1,422.515,486)">
                <path d="M0.903,-4.122C0.903,-4.903 1.016,-5.566 1.242,-6.112C1.468,-6.658 1.8,-7.105 2.237,-7.453C2.675,-7.801 3.207,-8.062 3.832,-8.237C4.458,-8.411 5.176,-8.521 5.985,-8.568L9.133,-8.738L9.133,-9.867C9.133,-10.375 9.088,-10.794 8.999,-11.123C8.909,-11.453 8.761,-11.716 8.554,-11.914C8.347,-12.111 8.072,-12.25 7.728,-12.33C7.385,-12.41 6.959,-12.45 6.451,-12.45C5.943,-12.45 5.46,-12.394 5.004,-12.281C4.548,-12.168 4.15,-12.045 3.811,-11.914C3.407,-11.754 3.035,-11.575 2.696,-11.377C2.489,-11.669 2.324,-11.949 2.202,-12.217C2.08,-12.485 1.986,-12.728 1.92,-12.944C1.835,-13.189 1.779,-13.424 1.75,-13.65C2.202,-13.876 2.687,-14.073 3.204,-14.243C3.656,-14.393 4.176,-14.53 4.764,-14.652C5.352,-14.774 5.971,-14.836 6.62,-14.836C7.693,-14.836 8.582,-14.742 9.288,-14.553C9.994,-14.365 10.556,-14.08 10.975,-13.699C11.394,-13.318 11.685,-12.838 11.85,-12.26C12.015,-11.681 12.097,-10.996 12.097,-10.206L12.097,-2.329L13.283,-0.889L13.283,0L10.671,0L9.585,-1.256L9.076,-1.256C9.029,-1.209 8.905,-1.103 8.702,-0.939C8.5,-0.774 8.241,-0.6 7.926,-0.416C7.611,-0.233 7.253,-0.071 6.853,0.071C6.453,0.212 6.027,0.282 5.576,0.282C4.87,0.282 4.23,0.176 3.656,-0.035C3.082,-0.247 2.59,-0.548 2.181,-0.939C1.772,-1.329 1.456,-1.795 1.235,-2.336C1.014,-2.877 0.903,-3.472 0.903,-4.122ZM3.981,-4.376C3.981,-3.943 4.042,-3.583 4.164,-3.296C4.286,-3.009 4.458,-2.781 4.679,-2.611C4.901,-2.442 5.169,-2.324 5.484,-2.259C5.799,-2.193 6.15,-2.16 6.536,-2.16C6.893,-2.16 7.23,-2.204 7.545,-2.294C7.86,-2.383 8.135,-2.484 8.371,-2.597C8.644,-2.72 8.898,-2.865 9.133,-3.035L9.133,-6.832L6.296,-6.649C5.853,-6.62 5.484,-6.545 5.188,-6.423C4.891,-6.3 4.653,-6.14 4.475,-5.943C4.296,-5.745 4.169,-5.512 4.094,-5.244C4.018,-4.976 3.981,-4.686 3.981,-4.376Z" style="fill:white;"/>
            </g>
            <g transform="matrix(1,0,0,1,422.515,486)">
                <path d="M13.241,-14.426L16.276,-14.426L19.48,-2.978L19.847,-1.397L20.2,-2.978L23.306,-14.426L26.298,-14.426L22.007,0L17.575,0L13.241,-14.426Z" style="fill:white;"/>
            </g>
            <g transform="matrix(1,0,0,1,422.515,486)">
                <path d="M26.624,-7.072C26.624,-8.427 26.789,-9.594 27.118,-10.573C27.447,-11.551 27.908,-12.356 28.501,-12.986C29.094,-13.617 29.802,-14.08 30.626,-14.377C31.449,-14.673 32.355,-14.822 33.343,-14.822C34.256,-14.822 35.072,-14.669 35.792,-14.363C36.512,-14.057 37.121,-13.626 37.62,-13.071C38.119,-12.516 38.5,-11.853 38.763,-11.081C39.027,-10.309 39.159,-9.458 39.159,-8.526C39.159,-8.206 39.145,-7.91 39.116,-7.637C39.088,-7.364 39.055,-7.128 39.018,-6.931C38.98,-6.696 38.938,-6.484 38.89,-6.296L29.631,-6.338C29.64,-5.5 29.729,-4.806 29.899,-4.256C30.068,-3.705 30.32,-3.27 30.654,-2.95C30.988,-2.63 31.409,-2.407 31.917,-2.28C32.425,-2.153 33.028,-2.089 33.724,-2.089C34.317,-2.089 34.849,-2.127 35.319,-2.202C35.79,-2.277 36.19,-2.367 36.519,-2.47C36.895,-2.583 37.234,-2.715 37.535,-2.865C37.677,-2.536 37.787,-2.23 37.867,-1.948C37.947,-1.666 38.006,-1.421 38.044,-1.214C38.081,-0.969 38.109,-0.753 38.128,-0.565C37.818,-0.405 37.441,-0.263 36.999,-0.141C36.623,-0.038 36.161,0.059 35.616,0.148C35.07,0.238 34.439,0.282 33.724,0.282C32.595,0.282 31.59,0.155 30.71,-0.099C29.831,-0.353 29.087,-0.769 28.48,-1.348C27.873,-1.927 27.412,-2.684 27.097,-3.621C26.782,-4.557 26.624,-5.707 26.624,-7.072ZM36.138,-8.399L36.138,-8.879C36.138,-9.472 36.065,-9.996 35.919,-10.453C35.773,-10.909 35.573,-11.293 35.319,-11.603C35.065,-11.914 34.764,-12.149 34.416,-12.309C34.068,-12.469 33.691,-12.549 33.287,-12.549C32.694,-12.549 32.171,-12.471 31.72,-12.316C31.268,-12.161 30.889,-11.916 30.583,-11.582C30.278,-11.248 30.049,-10.817 29.899,-10.29C29.748,-9.763 29.673,-9.133 29.673,-8.399L36.138,-8.399Z" style="fill:white;"/>
            </g>
            <g transform="matrix(1,0,0,1,422.515,486)">
                <path d="M42.831,-14.582L44.284,-13.057C44.388,-13.292 44.522,-13.516 44.687,-13.728C44.851,-13.939 45.044,-14.125 45.266,-14.285C45.487,-14.445 45.736,-14.572 46.014,-14.666C46.291,-14.76 46.595,-14.807 46.924,-14.807C47.197,-14.807 47.461,-14.786 47.715,-14.744C47.969,-14.702 48.246,-14.629 48.547,-14.525C48.557,-14.506 48.569,-14.431 48.583,-14.299C48.597,-14.167 48.604,-14.003 48.604,-13.805C48.604,-13.655 48.594,-13.478 48.576,-13.276C48.557,-13.074 48.526,-12.866 48.484,-12.655C48.442,-12.443 48.38,-12.234 48.3,-12.027C48.22,-11.82 48.119,-11.641 47.997,-11.49L47.729,-11.42C47.54,-11.514 47.331,-11.594 47.101,-11.66C46.87,-11.725 46.632,-11.758 46.388,-11.758C46.011,-11.758 45.696,-11.733 45.442,-11.681C45.188,-11.629 44.981,-11.575 44.821,-11.518C44.633,-11.453 44.482,-11.377 44.369,-11.293L44.369,0L41.348,0L41.348,-11.843L40.233,-12.986L40.233,-14.582L42.831,-14.582Z" style="fill:white;"/>
            </g>
            <g transform="matrix(1,0,0,1,422.515,486)">
                <path d="M51.471,-16.868C51.207,-16.868 50.96,-16.915 50.73,-17.009C50.499,-17.104 50.297,-17.231 50.123,-17.391C49.948,-17.551 49.81,-17.736 49.706,-17.948C49.603,-18.16 49.551,-18.388 49.551,-18.633C49.551,-18.887 49.603,-19.122 49.706,-19.339C49.81,-19.555 49.948,-19.743 50.123,-19.903C50.297,-20.063 50.499,-20.188 50.73,-20.277C50.96,-20.367 51.207,-20.411 51.471,-20.411C51.734,-20.411 51.983,-20.367 52.219,-20.277C52.454,-20.188 52.659,-20.063 52.833,-19.903C53.007,-19.743 53.146,-19.555 53.249,-19.339C53.353,-19.122 53.404,-18.887 53.404,-18.633C53.404,-18.388 53.353,-18.16 53.249,-17.948C53.146,-17.736 53.007,-17.551 52.833,-17.391C52.659,-17.231 52.454,-17.104 52.219,-17.009C51.983,-16.915 51.734,-16.868 51.471,-16.868ZM49.847,-14.426L52.783,-14.426L52.783,-2.371L53.616,-1.779L53.616,0L52.812,0L52.783,-0.028L52.783,0C51.852,0 51.129,-0.188 50.617,-0.565C50.104,-0.941 49.847,-1.562 49.847,-2.428L49.847,-14.426Z" style="fill:white;"/>
            </g>
            <g transform="matrix(1,0,0,1,422.515,486)">
                <path d="M55.128,-7.213C55.128,-8.455 55.295,-9.552 55.629,-10.502C55.963,-11.453 56.433,-12.248 57.04,-12.888C57.647,-13.528 58.372,-14.012 59.214,-14.342C60.057,-14.671 60.986,-14.836 62.002,-14.836C63.047,-14.836 63.988,-14.683 64.825,-14.377C65.663,-14.071 66.373,-13.608 66.957,-12.986C67.54,-12.365 67.987,-11.591 68.298,-10.664C68.608,-9.737 68.764,-8.653 68.764,-7.411C68.764,-6.169 68.606,-5.068 68.291,-4.108C67.975,-3.148 67.524,-2.343 66.936,-1.694C66.347,-1.045 65.637,-0.553 64.804,-0.219C63.971,0.115 63.037,0.282 62.002,0.282C60.929,0.282 59.967,0.125 59.115,-0.191C58.264,-0.506 57.544,-0.976 56.956,-1.602C56.368,-2.228 55.916,-3.009 55.601,-3.945C55.285,-4.882 55.128,-5.971 55.128,-7.213ZM62.002,-2.047C62.623,-2.047 63.162,-2.181 63.618,-2.449C64.075,-2.717 64.449,-3.089 64.741,-3.564C65.032,-4.039 65.249,-4.604 65.39,-5.258C65.531,-5.912 65.602,-6.63 65.602,-7.411C65.602,-9.095 65.315,-10.38 64.741,-11.264C64.167,-12.149 63.254,-12.591 62.002,-12.591C61.372,-12.591 60.823,-12.457 60.358,-12.189C59.892,-11.921 59.506,-11.547 59.2,-11.067C58.894,-10.587 58.666,-10.017 58.516,-9.359C58.365,-8.7 58.29,-7.985 58.29,-7.213C58.29,-5.51 58.593,-4.223 59.2,-3.352C59.807,-2.482 60.741,-2.047 62.002,-2.047Z" style="fill:white;"/>
            </g>
            <g transform="matrix(1,0,0,1,422.515,486)">
                <path d="M78.139,-19.169L82.952,-19.169L85.719,-9.599L86.749,-5.477L87.78,-9.599L90.476,-19.169L95.289,-19.169L96.334,0L93.271,0L92.692,-13.862L92.763,-17.574C92.546,-16.925 92.323,-16.21 92.092,-15.428C91.862,-14.647 91.626,-13.836 91.386,-12.994C91.146,-12.151 90.906,-11.295 90.666,-10.424C90.426,-9.554 90.186,-8.698 89.947,-7.855C89.707,-7.013 89.471,-6.204 89.241,-5.427C89.01,-4.651 88.787,-3.943 88.57,-3.303L84.942,-3.303L80.623,-17.616L80.68,-13.805L80.2,0L77.136,0L78.139,-19.169Z" style="fill:white;"/>
            </g>
            <g transform="matrix(1,0,0,1,422.515,486)">
                <path d="M97.733,-7.213C97.733,-8.455 97.9,-9.552 98.234,-10.502C98.568,-11.453 99.038,-12.248 99.645,-12.888C100.252,-13.528 100.977,-14.012 101.819,-14.342C102.662,-14.671 103.591,-14.836 104.607,-14.836C105.652,-14.836 106.593,-14.683 107.43,-14.377C108.268,-14.071 108.978,-13.608 109.562,-12.986C110.145,-12.365 110.592,-11.591 110.903,-10.664C111.213,-9.737 111.369,-8.653 111.369,-7.411C111.369,-6.169 111.211,-5.068 110.896,-4.108C110.58,-3.148 110.129,-2.343 109.541,-1.694C108.952,-1.045 108.242,-0.553 107.409,-0.219C106.576,0.115 105.642,0.282 104.607,0.282C103.534,0.282 102.572,0.125 101.72,-0.191C100.869,-0.506 100.149,-0.976 99.561,-1.602C98.973,-2.228 98.521,-3.009 98.206,-3.945C97.89,-4.882 97.733,-5.971 97.733,-7.213ZM104.607,-2.047C105.228,-2.047 105.767,-2.181 106.223,-2.449C106.68,-2.717 107.054,-3.089 107.346,-3.564C107.637,-4.039 107.854,-4.604 107.995,-5.258C108.136,-5.912 108.207,-6.63 108.207,-7.411C108.207,-9.095 107.92,-10.38 107.346,-11.264C106.772,-12.149 105.859,-12.591 104.607,-12.591C103.977,-12.591 103.428,-12.457 102.963,-12.189C102.497,-11.921 102.111,-11.547 101.805,-11.067C101.499,-10.587 101.271,-10.017 101.121,-9.359C100.97,-8.7 100.895,-7.985 100.895,-7.213C100.895,-5.51 101.198,-4.223 101.805,-3.352C102.412,-2.482 103.346,-2.047 104.607,-2.047Z" style="fill:white;"/>
            </g>
            <g transform="matrix(1,0,0,1,422.515,486)">
                <path d="M115.012,-14.582L116.465,-13.057C116.569,-13.292 116.703,-13.516 116.868,-13.728C117.032,-13.939 117.225,-14.125 117.447,-14.285C117.668,-14.445 117.917,-14.572 118.195,-14.666C118.472,-14.76 118.776,-14.807 119.105,-14.807C119.378,-14.807 119.642,-14.786 119.896,-14.744C120.15,-14.702 120.427,-14.629 120.728,-14.525C120.738,-14.506 120.75,-14.431 120.764,-14.299C120.778,-14.167 120.785,-14.003 120.785,-13.805C120.785,-13.655 120.775,-13.478 120.757,-13.276C120.738,-13.074 120.707,-12.866 120.665,-12.655C120.623,-12.443 120.561,-12.234 120.481,-12.027C120.401,-11.82 120.3,-11.641 120.178,-11.49L119.91,-11.42C119.721,-11.514 119.512,-11.594 119.282,-11.66C119.051,-11.725 118.813,-11.758 118.569,-11.758C118.192,-11.758 117.877,-11.733 117.623,-11.681C117.369,-11.629 117.162,-11.575 117.002,-11.518C116.814,-11.453 116.663,-11.377 116.55,-11.293L116.55,0L113.529,0L113.529,-11.843L112.414,-12.986L112.414,-14.582L115.012,-14.582Z" style="fill:white;"/>
            </g>
            <g transform="matrix(1,0,0,1,422.515,486)">
                <path d="M121.125,-7.072C121.125,-8.427 121.29,-9.594 121.619,-10.573C121.948,-11.551 122.409,-12.356 123.002,-12.986C123.595,-13.617 124.303,-14.08 125.127,-14.377C125.95,-14.673 126.856,-14.822 127.844,-14.822C128.757,-14.822 129.573,-14.669 130.293,-14.363C131.013,-14.057 131.622,-13.626 132.121,-13.071C132.62,-12.516 133.001,-11.853 133.264,-11.081C133.528,-10.309 133.66,-9.458 133.66,-8.526C133.66,-8.206 133.646,-7.91 133.617,-7.637C133.589,-7.364 133.556,-7.128 133.519,-6.931C133.481,-6.696 133.439,-6.484 133.391,-6.296L124.132,-6.338C124.141,-5.5 124.23,-4.806 124.4,-4.256C124.569,-3.705 124.821,-3.27 125.155,-2.95C125.489,-2.63 125.91,-2.407 126.418,-2.28C126.926,-2.153 127.529,-2.089 128.225,-2.089C128.818,-2.089 129.35,-2.127 129.82,-2.202C130.291,-2.277 130.691,-2.367 131.02,-2.47C131.396,-2.583 131.735,-2.715 132.036,-2.865C132.178,-2.536 132.288,-2.23 132.368,-1.948C132.448,-1.666 132.507,-1.421 132.545,-1.214C132.582,-0.969 132.61,-0.753 132.629,-0.565C132.319,-0.405 131.942,-0.263 131.5,-0.141C131.124,-0.038 130.662,0.059 130.117,0.148C129.571,0.238 128.94,0.282 128.225,0.282C127.096,0.282 126.091,0.155 125.211,-0.099C124.332,-0.353 123.588,-0.769 122.981,-1.348C122.374,-1.927 121.913,-2.684 121.598,-3.621C121.283,-4.557 121.125,-5.707 121.125,-7.072ZM130.639,-8.399L130.639,-8.879C130.639,-9.472 130.566,-9.996 130.42,-10.453C130.274,-10.909 130.074,-11.293 129.82,-11.603C129.566,-11.914 129.265,-12.149 128.917,-12.309C128.569,-12.469 128.192,-12.549 127.788,-12.549C127.195,-12.549 126.672,-12.471 126.221,-12.316C125.769,-12.161 125.39,-11.916 125.084,-11.582C124.779,-11.248 124.55,-10.817 124.4,-10.29C124.249,-9.763 124.174,-9.133 124.174,-8.399L130.639,-8.399Z" style="fill:white;"/>
            </g>
            <g transform="matrix(1,0,0,1,422.515,486)">
                <path d="M135.355,-20.313L138.277,-20.313L138.277,-2.371L139.11,-1.779L139.11,0L138.306,0L138.277,-0.028L138.277,0C137.346,0 136.626,-0.188 136.118,-0.565C135.609,-0.941 135.355,-1.562 135.355,-2.428L135.355,-20.313Z" style="fill:white;"/>
            </g>
            <g transform="matrix(1,0,0,1,422.515,486)">
                <path d="M141.016,-20.313L143.938,-20.313L143.938,-2.371L144.771,-1.779L144.771,0L143.967,0L143.938,-0.028L143.938,0C143.007,0 142.287,-0.188 141.779,-0.565C141.27,-0.941 141.016,-1.562 141.016,-2.428L141.016,-20.313Z" style="fill:white;"/>
            </g>
            <g transform="matrix(1,0,0,1,422.515,486)">
                <path d="M148.542,-16.868C148.278,-16.868 148.031,-16.915 147.801,-17.009C147.57,-17.104 147.368,-17.231 147.194,-17.391C147.019,-17.551 146.881,-17.736 146.777,-17.948C146.674,-18.16 146.622,-18.388 146.622,-18.633C146.622,-18.887 146.674,-19.122 146.777,-19.339C146.881,-19.555 147.019,-19.743 147.194,-19.903C147.368,-20.063 147.57,-20.188 147.801,-20.277C148.031,-20.367 148.278,-20.411 148.542,-20.411C148.805,-20.411 149.054,-20.367 149.29,-20.277C149.525,-20.188 149.73,-20.063 149.904,-19.903C150.078,-19.743 150.217,-19.555 150.32,-19.339C150.424,-19.122 150.475,-18.887 150.475,-18.633C150.475,-18.388 150.424,-18.16 150.32,-17.948C150.217,-17.736 150.078,-17.551 149.904,-17.391C149.73,-17.231 149.525,-17.104 149.29,-17.009C149.054,-16.915 148.805,-16.868 148.542,-16.868ZM146.918,-14.426L149.854,-14.426L149.854,-2.371L150.687,-1.779L150.687,0L149.883,0L149.854,-0.028L149.854,0C148.923,0 148.2,-0.188 147.688,-0.565C147.175,-0.941 146.918,-1.562 146.918,-2.428L146.918,-14.426Z" style="fill:white;"/>
            </g>
        </g>
    </g>
    <g transform="matrix(1,0,0,1,-71.225,226)">
        <g>
            <path d="M326.5,61.35C326.5,63.75 325.675,65.975 324.025,68.025C322.375,70.075 320.1,71.1 317.2,71.1C314.8,71.1 312.5,70.35 310.3,68.85C308.1,67.35 307,64.8 307,61.2C307,58.8 306.65,56.7 305.95,54.9C305.25,53.1 304.3,51.65 303.1,50.55C301.9,49.45 300.575,48.625 299.125,48.075C297.675,47.525 296.2,47.25 294.7,47.25C291.8,47.25 289.125,48.125 286.675,49.875C284.225,51.625 283,54.15 283,57.45C283,60.35 284.15,62.775 286.45,64.725C288.75,66.675 291.625,68.5 295.075,70.2C298.525,71.9 302.275,73.575 306.325,75.225C310.375,76.875 314.125,78.825 317.575,81.075C321.025,83.325 323.9,86 326.2,89.1C328.5,92.2 329.65,96 329.65,100.5C329.65,104.9 328.575,108.6 326.425,111.6C324.275,114.6 321.45,117.05 317.95,118.95C314.45,120.85 310.5,122.2 306.1,123C301.7,123.8 297.2,124.2 292.6,124.2C288.2,124.2 283.9,123.75 279.7,122.85C275.5,121.95 271.75,120.6 268.45,118.8C265.15,117 262.5,114.75 260.5,112.05C258.5,109.35 257.5,106.2 257.5,102.6C257.5,100.2 258.325,97.975 259.975,95.925C261.625,93.875 263.9,92.85 266.8,92.85C269.2,92.85 271.5,93.6 273.7,95.1C275.9,96.6 277,99.15 277,102.75C277,105.05 277.45,107.075 278.35,108.825C279.25,110.575 280.45,112.025 281.95,113.175C283.45,114.325 285.175,115.2 287.125,115.8C289.075,116.4 291.05,116.7 293.05,116.7C297.35,116.7 300.775,115.875 303.325,114.225C305.875,112.575 307.15,110 307.15,106.5C307.15,104.1 306,102 303.7,100.2C301.4,98.4 298.525,96.7 295.075,95.1C291.625,93.5 287.9,91.85 283.9,90.15C279.9,88.45 276.175,86.4 272.725,84C269.275,81.6 266.375,78.775 264.025,75.525C261.675,72.275 260.5,68.25 260.5,63.45C260.5,59.45 261.45,55.95 263.35,52.95C265.25,49.95 267.775,47.475 270.925,45.525C274.075,43.575 277.65,42.125 281.65,41.175C285.65,40.225 289.75,39.75 293.95,39.75C298.05,39.75 302.05,40.2 305.95,41.1C309.85,42 313.325,43.35 316.375,45.15C319.425,46.95 321.875,49.2 323.725,51.9C325.575,54.6 326.5,57.75 326.5,61.35Z" style="fill:rgb(238,238,238);fill-rule:nonzero;"/>
            <path d="M338.65,62.55C338.55,58.65 339.575,55.275 341.725,52.425C343.875,49.575 346.625,47.225 349.975,45.375C353.325,43.525 356.95,42.125 360.85,41.175C364.75,40.225 368.4,39.75 371.8,39.75C377.5,39.75 382.6,40.625 387.1,42.375C391.6,44.125 395.4,46.55 398.5,49.65C401.6,52.75 403.975,56.425 405.625,60.675C407.275,64.925 408.1,69.6 408.1,74.7L408.1,105.75C408.2,107.55 408.45,109.15 408.85,110.55C409.25,111.95 410.25,112.65 411.85,112.65C413.25,112.65 414.3,113.025 415,113.775C415.7,114.525 416.05,115.375 416.05,116.325C416.05,117.275 415.7,118.125 415,118.875C414.3,119.625 413.25,120 411.85,120L392.05,120C389.55,120 387.9,119.625 387.1,118.875C386.3,118.125 385.8,116.95 385.6,115.35C382.6,118.25 379.05,120.45 374.95,121.95C370.85,123.45 366.55,124.2 362.05,124.2C358.25,124.2 354.6,123.675 351.1,122.625C347.6,121.575 344.45,119.95 341.65,117.75C338.95,115.65 336.775,113.075 335.125,110.025C333.475,106.975 332.65,103.55 332.65,99.75C332.65,95.55 333.65,91.925 335.65,88.875C337.65,85.825 340.225,83.325 343.375,81.375C346.525,79.425 350.025,78 353.875,77.1C357.725,76.2 361.45,75.8 365.05,75.9C368.75,76 372.35,76.4 375.85,77.1C379.35,77.8 382.55,78.85 385.45,80.25L385.45,73.5C385.45,70.9 385.375,68.075 385.225,65.025C385.075,61.975 384.55,59.125 383.65,56.475C382.75,53.825 381.325,51.625 379.375,49.875C377.425,48.125 374.6,47.25 370.9,47.25C368.6,47.25 366.65,47.675 365.05,48.525C363.45,49.375 362.125,50.5 361.075,51.9C360.025,53.3 359.275,54.925 358.825,56.775C358.375,58.625 358.15,60.55 358.15,62.55C358.15,65.25 357.125,67.475 355.075,69.225C353.025,70.975 350.7,71.85 348.1,71.85C345.2,71.85 342.925,70.9 341.275,69C339.625,67.1 338.75,64.95 338.65,62.55ZM385.45,88.8C383.35,87 381.075,85.675 378.625,84.825C376.175,83.975 373.75,83.55 371.35,83.55C369.35,83.55 367.375,83.9 365.425,84.6C363.475,85.3 361.75,86.275 360.25,87.525C358.75,88.775 357.525,90.325 356.575,92.175C355.625,94.025 355.15,96.1 355.15,98.4C355.15,102.7 356.6,106.325 359.5,109.275C362.4,112.225 366,113.7 370.3,113.7C373,113.7 375.7,113.125 378.4,111.975C381.1,110.825 383.5,108.95 385.6,106.35L385.45,88.8Z" style="fill:rgb(238,238,238);fill-rule:nonzero;"/>
            <path d="M503.05,43.8C504.35,43.8 505.35,44.2 506.05,45C506.75,45.8 507.1,46.65 507.1,47.55C507.1,48.45 506.775,49.3 506.125,50.1C505.475,50.9 504.45,51.3 503.05,51.3C500.85,51.3 499.3,51.9 498.4,53.1C497.5,54.3 496.55,56.05 495.55,58.35L471.7,114.45C470.9,116.35 469.9,117.75 468.7,118.65C467.5,119.55 465.45,120 462.55,120L451.6,120C448.7,120 446.65,119.55 445.45,118.65C444.25,117.75 443.25,116.35 442.45,114.45L418.75,58.35C417.75,56.05 416.8,54.3 415.9,53.1C415,51.9 413.45,51.3 411.25,51.3C409.85,51.3 408.8,50.9 408.1,50.1C407.4,49.3 407.05,48.45 407.05,47.55C407.05,46.65 407.4,45.8 408.1,45C408.8,44.2 409.85,43.8 411.25,43.8L446.35,43.8C447.75,43.8 448.8,44.2 449.5,45C450.2,45.8 450.55,46.65 450.55,47.55C450.55,48.45 450.2,49.3 449.5,50.1C448.8,50.9 447.75,51.3 446.35,51.3C444.05,51.3 442.725,51.975 442.375,53.325C442.025,54.675 442.3,56.35 443.2,58.35L465.25,110.55L487.3,58.35C488.1,56.35 488.35,54.675 488.05,53.325C487.75,51.975 486.45,51.3 484.15,51.3C482.75,51.3 481.7,50.9 481,50.1C480.3,49.3 479.95,48.45 479.95,47.55C479.95,46.65 480.3,45.8 481,45C481.7,44.2 482.75,43.8 484.15,43.8L503.05,43.8Z" style="fill:rgb(238,238,238);fill-rule:nonzero;"/>
            <path d="M543.1,105.75C543.1,107.55 543.375,109.125 543.925,110.475C544.475,111.825 545.45,112.5 546.85,112.5C548.25,112.5 549.3,112.9 550,113.7C550.7,114.5 551.05,115.35 551.05,116.25C551.05,117.15 550.7,118 550,118.8C549.3,119.6 548.25,120 546.85,120L516.85,120C515.45,120 514.4,119.6 513.7,118.8C513,118 512.65,117.15 512.65,116.25C512.65,115.35 513,114.5 513.7,113.7C514.4,112.9 515.45,112.5 516.85,112.5C518.25,112.5 519.25,111.825 519.85,110.475C520.45,109.125 520.7,107.55 520.6,105.75L520.45,66.15C520.45,64.35 520.175,62.8 519.625,61.5C519.075,60.2 518.1,59.55 516.7,59.55C514.9,59.55 513.625,59.225 512.875,58.575C512.125,57.925 511.75,57.05 511.75,55.95C511.75,54.55 512.15,53.5 512.95,52.8C513.75,52.1 515,51.35 516.7,50.55L535.3,40.95C537.6,39.85 539.45,39.55 540.85,40.05C542.25,40.55 542.95,41.95 542.95,44.25L542.95,51.75C545.55,48.05 548.85,45.125 552.85,42.975C556.85,40.825 561.5,39.75 566.8,39.75C574.7,39.75 580.95,41.25 585.55,44.25C590.15,47.25 593.5,51.3 595.6,56.4C597.9,51.3 601.3,47.25 605.8,44.25C610.3,41.25 615.7,39.75 622,39.75C627.5,39.75 632.275,40.65 636.325,42.45C640.375,44.25 643.675,46.725 646.225,49.875C648.775,53.025 650.675,56.725 651.925,60.975C653.175,65.225 653.8,69.8 653.8,74.7L653.95,105.75C653.95,107.55 654.2,109.125 654.7,110.475C655.2,111.825 656.15,112.5 657.55,112.5C658.95,112.5 660,112.9 660.7,113.7C661.4,114.5 661.75,115.35 661.75,116.25C661.75,117.15 661.4,118 660.7,118.8C660,119.6 658.95,120 657.55,120L627.7,120C626.3,120 625.225,119.6 624.475,118.8C623.725,118 623.35,117.15 623.35,116.25C623.35,115.35 623.725,114.5 624.475,113.7C625.225,112.9 626.3,112.5 627.7,112.5C629.1,112.5 630.075,111.825 630.625,110.475C631.175,109.125 631.45,107.55 631.45,105.75L631.3,71.1C631.3,68.3 631.025,65.65 630.475,63.15C629.925,60.65 629.05,58.5 627.85,56.7C626.65,54.9 625,53.475 622.9,52.425C620.8,51.375 618.15,50.85 614.95,50.85C612.55,50.85 610.35,51.275 608.35,52.125C606.35,52.975 604.6,54.125 603.1,55.575C601.6,57.025 600.425,58.75 599.575,60.75C598.725,62.75 598.3,64.9 598.3,67.2C598.4,68.4 598.475,69.625 598.525,70.875C598.575,72.125 598.65,73.4 598.75,74.7L598.75,105.6C598.75,107.4 599.025,108.975 599.575,110.325C600.125,111.675 601.1,112.35 602.5,112.35C603.9,112.35 604.95,112.75 605.65,113.55C606.35,114.35 606.7,115.225 606.7,116.175C606.7,117.125 606.35,118 605.65,118.8C604.95,119.6 603.9,120 602.5,120L572.5,120C571.1,120 570.05,119.6 569.35,118.8C568.65,118 568.3,117.125 568.3,116.175C568.3,115.225 568.65,114.35 569.35,113.55C570.05,112.75 571.1,112.35 572.5,112.35C573.9,112.35 574.875,111.7 575.425,110.4C575.975,109.1 576.25,107.5 576.25,105.6L576.1,70.95C576.1,68.15 575.825,65.525 575.275,63.075C574.725,60.625 573.85,58.5 572.65,56.7C571.45,54.9 569.8,53.475 567.7,52.425C565.6,51.375 562.95,50.85 559.75,50.85C557.35,50.85 555.125,51.275 553.075,52.125C551.025,52.975 549.275,54.15 547.825,55.65C546.375,57.15 545.225,58.9 544.375,60.9C543.525,62.9 543.1,65.1 543.1,67.5L543.1,105.75Z" style="fill:rgb(238,238,238);fill-rule:nonzero;"/>
            <path d="M740.95,56.25C740.95,59.55 740.05,62.025 738.25,63.675C736.45,65.325 734.4,66.2 732.1,66.3C729.8,66.4 727.6,65.75 725.5,64.35C723.4,62.95 722.05,60.85 721.45,58.05C720.75,54.95 719.675,52.45 718.225,50.55C716.775,48.65 714.7,47.7 712,47.7C710,47.7 708.125,48.275 706.375,49.425C704.625,50.575 703.1,52.1 701.8,54C700.5,55.9 699.475,58.025 698.725,60.375C697.975,62.725 697.6,65.1 697.6,67.5L697.6,105.75C697.6,107.55 697.875,109.125 698.425,110.475C698.975,111.825 699.95,112.5 701.35,112.5C702.75,112.5 703.8,112.9 704.5,113.7C705.2,114.5 705.55,115.35 705.55,116.25C705.55,117.15 705.2,118 704.5,118.8C703.8,119.6 702.75,120 701.35,120L671.5,120C670.1,120 669.025,119.6 668.275,118.8C667.525,118 667.15,117.15 667.15,116.25C667.15,115.35 667.525,114.5 668.275,113.7C669.025,112.9 670.1,112.5 671.5,112.5C672.9,112.5 673.875,111.825 674.425,110.475C674.975,109.125 675.25,107.55 675.25,105.75L674.95,66.15C674.95,64.35 674.675,62.8 674.125,61.5C673.575,60.2 672.6,59.55 671.2,59.55C669.4,59.55 668.15,59.225 667.45,58.575C666.75,57.925 666.4,57.05 666.4,55.95C666.4,54.55 666.775,53.5 667.525,52.8C668.275,52.1 669.5,51.35 671.2,50.55L689.8,40.95C692.1,39.85 693.975,39.55 695.425,40.05C696.875,40.55 697.6,41.95 697.6,44.25L697.6,51.15C700,47.65 703.025,44.875 706.675,42.825C710.325,40.775 714.7,39.75 719.8,39.75C722.1,39.75 724.5,40.125 727,40.875C729.5,41.625 731.775,42.7 733.825,44.1C735.875,45.5 737.575,47.225 738.925,49.275C740.275,51.325 740.95,53.65 740.95,56.25Z" style="fill:rgb(238,238,238);fill-rule:nonzero;"/>
            <path d="M743.8,0.9L763.15,-9.15C764.55,-9.95 766.05,-10.125 767.65,-9.675C769.25,-9.225 770.05,-7.75 770.05,-5.25L770.05,105.75C770.05,107.55 770.325,109.125 770.875,110.475C771.425,111.825 772.4,112.5 773.8,112.5C775.2,112.5 776.25,112.9 776.95,113.7C777.65,114.5 778,115.35 778,116.25C778,117.15 777.65,118 776.95,118.8C776.25,119.6 775.2,120 773.8,120L743.8,120C742.4,120 741.35,119.6 740.65,118.8C739.95,118 739.6,117.15 739.6,116.25C739.6,115.35 739.95,114.5 740.65,113.7C741.35,112.9 742.4,112.5 743.8,112.5C745.2,112.5 746.175,111.825 746.725,110.475C747.275,109.125 747.55,107.55 747.55,105.75L747.55,16.65C747.55,14.85 747.275,13.275 746.725,11.925C746.175,10.575 745.2,9.9 743.8,9.9C742,9.9 740.75,9.575 740.05,8.925C739.35,8.275 739,7.4 739,6.3C739,4.9 739.375,3.85 740.125,3.15C740.875,2.45 742.1,1.7 743.8,0.9Z" style="fill:rgb(238,238,238);fill-rule:nonzero;"/>
            <path d="M782.5,110.55C782.5,106.35 783.925,103 786.775,100.5C789.625,98 793.4,96.75 798.1,96.75C802.9,96.75 806.7,98 809.5,100.5C812.3,103 813.7,106.35 813.7,110.55C813.7,114.65 812.3,117.95 809.5,120.45C806.7,122.95 802.9,124.2 798.1,124.2C793.4,124.2 789.625,122.95 786.775,120.45C783.925,117.95 782.5,114.65 782.5,110.55Z" style="fill:rgb(238,238,238);fill-rule:nonzero;"/>
            <path d="M818.2,14.55C818.2,10.35 819.625,7.025 822.475,4.575C825.325,2.125 829.1,0.9 833.8,0.9C838.6,0.9 842.4,2.125 845.2,4.575C848,7.025 849.4,10.35 849.4,14.55C849.4,18.75 848,22.1 845.2,24.6C842.4,27.1 838.6,28.35 833.8,28.35C829.1,28.35 825.325,27.1 822.475,24.6C819.625,22.1 818.2,18.75 818.2,14.55ZM849.4,44.25L849.4,105.75C849.4,107.55 849.675,109.125 850.225,110.475C850.775,111.825 851.75,112.5 853.15,112.5C854.55,112.5 855.6,112.9 856.3,113.7C857,114.5 857.35,115.35 857.35,116.25C857.35,117.15 857,118 856.3,118.8C855.6,119.6 854.55,120 853.15,120L823.3,120C821.9,120 820.825,119.6 820.075,118.8C819.325,118 818.95,117.15 818.95,116.25C818.95,115.35 819.325,114.5 820.075,113.7C820.825,112.9 821.9,112.5 823.3,112.5C824.7,112.5 825.675,111.825 826.225,110.475C826.775,109.125 827.05,107.55 827.05,105.75L826.75,66.15C826.75,64.35 826.475,62.8 825.925,61.5C825.375,60.2 824.4,59.55 823,59.55C821.2,59.55 819.95,59.225 819.25,58.575C818.55,57.925 818.2,57.05 818.2,55.95C818.2,54.55 818.575,53.5 819.325,52.8C820.075,52.1 821.3,51.35 823,50.55L841.6,40.95C843.9,39.85 845.775,39.55 847.225,40.05C848.675,40.55 849.4,41.95 849.4,44.25Z" style="fill:rgb(238,238,238);fill-rule:nonzero;"/>
            <path d="M905.05,51.3C902.25,51.3 900.025,51.45 898.375,51.75C896.725,52.05 895.475,52.675 894.625,53.625C893.775,54.575 893.225,55.9 892.975,57.6C892.725,59.3 892.6,61.55 892.6,64.35L892.6,108C892.6,110 893.05,111.5 893.95,112.5C894.85,113.5 895.875,113.925 897.025,113.775C898.175,113.625 899.2,112.875 900.1,111.525C901,110.175 901.45,108.15 901.45,105.45C901.45,103.95 901.85,102.8 902.65,102C903.45,101.2 904.3,100.8 905.2,100.8C906.1,100.8 906.95,101.175 907.75,101.925C908.55,102.675 908.95,103.85 908.95,105.45C908.95,111.05 907.45,115.55 904.45,118.95C901.45,122.35 896.95,124.1 890.95,124.2C886.95,124.2 883.6,123.575 880.9,122.325C878.2,121.075 876.05,119.375 874.45,117.225C872.85,115.075 871.725,112.575 871.075,109.725C870.425,106.875 870.1,103.95 870.1,100.95L870.1,51.3L866.05,51.3C864.75,51.3 863.775,50.9 863.125,50.1C862.475,49.3 862.15,48.45 862.15,47.55C862.15,46.65 862.475,45.8 863.125,45C863.775,44.2 864.75,43.8 866.05,43.8L870.25,43.8C872.15,43.8 873.85,43.4 875.35,42.6C876.85,41.8 878.125,40.775 879.175,39.525C880.225,38.275 881.1,36.875 881.8,35.325C882.5,33.775 883.05,32.25 883.45,30.75C883.95,28.95 884.7,27.7 885.7,27C886.7,26.3 887.675,26 888.625,26.1C889.575,26.2 890.45,26.675 891.25,27.525C892.05,28.375 892.45,29.45 892.45,30.75L892.6,43.8L905.05,43.8C906.35,43.8 907.325,44.2 907.975,45C908.625,45.8 908.95,46.65 908.95,47.55C908.95,48.45 908.625,49.3 907.975,50.1C907.325,50.9 906.35,51.3 905.05,51.3Z" style="fill:rgb(238,238,238);fill-rule:nonzero;"/>
        </g>
    </g>
    <g transform="matrix(0.176761,0,0,0.176761,408.065,97.4636)">
        <g>
            <path d="M411.7,199.69C411.7,206.25 409.445,212.332 404.935,217.935C400.425,223.538 394.207,226.34 386.28,226.34C379.72,226.34 373.433,224.29 367.42,220.19C361.407,216.09 358.4,209.12 358.4,199.28C358.4,192.72 357.443,186.98 355.53,182.06C353.617,177.14 351.02,173.177 347.74,170.17C344.46,167.163 340.838,164.908 336.875,163.405C332.912,161.902 328.88,161.15 324.78,161.15C316.853,161.15 309.542,163.542 302.845,168.325C296.148,173.108 292.8,180.01 292.8,189.03C292.8,196.957 295.943,203.585 302.23,208.915C308.517,214.245 316.375,219.233 325.805,223.88C335.235,228.527 345.485,233.105 356.555,237.615C367.625,242.125 377.875,247.455 387.305,253.605C396.735,259.755 404.593,267.067 410.88,275.54C417.167,284.013 420.31,294.4 420.31,306.7C420.31,318.727 417.372,328.84 411.495,337.04C405.618,345.24 397.897,351.937 388.33,357.13C378.763,362.323 367.967,366.013 355.94,368.2C343.913,370.387 331.613,371.48 319.04,371.48C307.013,371.48 295.26,370.25 283.78,367.79C272.3,365.33 262.05,361.64 253.03,356.72C244.01,351.8 236.767,345.65 231.3,338.27C225.833,330.89 223.1,322.28 223.1,312.44C223.1,305.88 225.355,299.798 229.865,294.195C234.375,288.592 240.593,285.79 248.52,285.79C255.08,285.79 261.367,287.84 267.38,291.94C273.393,296.04 276.4,303.01 276.4,312.85C276.4,319.137 277.63,324.672 280.09,329.455C282.55,334.238 285.83,338.202 289.93,341.345C294.03,344.488 298.745,346.88 304.075,348.52C309.405,350.16 314.803,350.98 320.27,350.98C332.023,350.98 341.385,348.725 348.355,344.215C355.325,339.705 358.81,332.667 358.81,323.1C358.81,316.54 355.667,310.8 349.38,305.88C343.093,300.96 335.235,296.313 325.805,291.94C316.375,287.567 306.193,283.057 295.26,278.41C284.327,273.763 274.145,268.16 264.715,261.6C255.285,255.04 247.358,247.318 240.935,238.435C234.512,229.552 231.3,218.55 231.3,205.43C231.3,194.497 233.897,184.93 239.09,176.73C244.283,168.53 251.185,161.765 259.795,156.435C268.405,151.105 278.177,147.142 289.11,144.545C300.043,141.948 311.25,140.65 322.73,140.65C333.937,140.65 344.87,141.88 355.53,144.34C366.19,146.8 375.688,150.49 384.025,155.41C392.362,160.33 399.058,166.48 404.115,173.86C409.172,181.24 411.7,189.85 411.7,199.69Z" style="fill:rgb(238,238,238);"/>
            <path d="M444.91,202.97C444.637,192.31 447.438,183.085 453.315,175.295C459.192,167.505 466.708,161.082 475.865,156.025C485.022,150.968 494.93,147.142 505.59,144.545C516.25,141.948 526.227,140.65 535.52,140.65C551.1,140.65 565.04,143.042 577.34,147.825C589.64,152.608 600.027,159.237 608.5,167.71C616.973,176.183 623.465,186.228 627.975,197.845C632.485,209.462 634.74,222.24 634.74,236.18L634.74,321.05C635.013,325.97 635.697,330.343 636.79,334.17C637.883,337.997 640.617,339.91 644.99,339.91C648.817,339.91 651.687,340.935 653.6,342.985C655.513,345.035 656.47,347.358 656.47,349.955C656.47,352.552 655.513,354.875 653.6,356.925C651.687,358.975 648.817,360 644.99,360L590.87,360C584.037,360 579.527,358.975 577.34,356.925C575.153,354.875 573.787,351.663 573.24,347.29C565.04,355.217 555.337,361.23 544.13,365.33C532.923,369.43 521.17,371.48 508.87,371.48C498.483,371.48 488.507,370.045 478.94,367.175C469.373,364.305 460.763,359.863 453.11,353.85C445.73,348.11 439.785,341.072 435.275,332.735C430.765,324.398 428.51,315.037 428.51,304.65C428.51,293.17 431.243,283.262 436.71,274.925C442.177,266.588 449.215,259.755 457.825,254.425C466.435,249.095 476.002,245.2 486.525,242.74C497.048,240.28 507.23,239.187 517.07,239.46C527.183,239.733 537.023,240.827 546.59,242.74C556.157,244.653 564.903,247.523 572.83,251.35L572.83,232.9C572.83,225.793 572.625,218.072 572.215,209.735C571.805,201.398 570.37,193.608 567.91,186.365C565.45,179.122 561.555,173.108 556.225,168.325C550.895,163.542 543.173,161.15 533.06,161.15C526.773,161.15 521.443,162.312 517.07,164.635C512.697,166.958 509.075,170.033 506.205,173.86C503.335,177.687 501.285,182.128 500.055,187.185C498.825,192.242 498.21,197.503 498.21,202.97C498.21,210.35 495.408,216.432 489.805,221.215C484.202,225.998 477.847,228.39 470.74,228.39C462.813,228.39 456.595,225.793 452.085,220.6C447.575,215.407 445.183,209.53 444.91,202.97ZM572.83,274.72C567.09,269.8 560.872,266.178 554.175,263.855C547.478,261.532 540.85,260.37 534.29,260.37C528.823,260.37 523.425,261.327 518.095,263.24C512.765,265.153 508.05,267.818 503.95,271.235C499.85,274.652 496.502,278.888 493.905,283.945C491.308,289.002 490.01,294.673 490.01,300.96C490.01,312.713 493.973,322.622 501.9,330.685C509.827,338.748 519.667,342.78 531.42,342.78C538.8,342.78 546.18,341.208 553.56,338.065C560.94,334.922 567.5,329.797 573.24,322.69L572.83,274.72Z" style="fill:rgb(238,238,238);"/>
            <path d="M894.27,151.72C897.823,151.72 900.557,152.813 902.47,155C904.383,157.187 905.34,159.51 905.34,161.97C905.34,164.43 904.452,166.753 902.675,168.94C900.898,171.127 898.097,172.22 894.27,172.22C888.257,172.22 884.02,173.86 881.56,177.14C879.1,180.42 876.503,185.203 873.77,191.49L808.58,344.83C806.393,350.023 803.66,353.85 800.38,356.31C797.1,358.77 791.497,360 783.57,360L753.64,360C745.713,360 740.11,358.77 736.83,356.31C733.55,353.85 730.817,350.023 728.63,344.83L663.85,191.49C661.117,185.203 658.52,180.42 656.06,177.14C653.6,173.86 649.363,172.22 643.35,172.22C639.523,172.22 636.653,171.127 634.74,168.94C632.827,166.753 631.87,164.43 631.87,161.97C631.87,159.51 632.827,157.187 634.74,155C636.653,152.813 639.523,151.72 643.35,151.72L739.29,151.72C743.117,151.72 745.987,152.813 747.9,155C749.813,157.187 750.77,159.51 750.77,161.97C750.77,164.43 749.813,166.753 747.9,168.94C745.987,171.127 743.117,172.22 739.29,172.22C733.003,172.22 729.382,174.065 728.425,177.755C727.468,181.445 728.22,186.023 730.68,191.49L790.95,334.17L851.22,191.49C853.407,186.023 854.09,181.445 853.27,177.755C852.45,174.065 848.897,172.22 842.61,172.22C838.783,172.22 835.913,171.127 834,168.94C832.087,166.753 831.13,164.43 831.13,161.97C831.13,159.51 832.087,157.187 834,155C835.913,152.813 838.783,151.72 842.61,151.72L894.27,151.72Z" style="fill:rgb(238,238,238);"/>
            <path d="M310.84,557.05C310.84,561.97 311.592,566.275 313.095,569.965C314.598,573.655 317.263,575.5 321.09,575.5C324.917,575.5 327.787,576.593 329.7,578.78C331.613,580.967 332.57,583.29 332.57,585.75C332.57,588.21 331.613,590.533 329.7,592.72C327.787,594.907 324.917,596 321.09,596L239.09,596C235.263,596 232.393,594.907 230.48,592.72C228.567,590.533 227.61,588.21 227.61,585.75C227.61,583.29 228.567,580.967 230.48,578.78C232.393,576.593 235.263,575.5 239.09,575.5C242.917,575.5 245.65,573.655 247.29,569.965C248.93,566.275 249.613,561.97 249.34,557.05L248.93,448.81C248.93,443.89 248.178,439.653 246.675,436.1C245.172,432.547 242.507,430.77 238.68,430.77C233.76,430.77 230.275,429.882 228.225,428.105C226.175,426.328 225.15,423.937 225.15,420.93C225.15,417.103 226.243,414.233 228.43,412.32C230.617,410.407 234.033,408.357 238.68,406.17L289.52,379.93C295.807,376.923 300.863,376.103 304.69,377.47C308.517,378.837 310.43,382.663 310.43,388.95L310.43,409.45C317.537,399.337 326.557,391.342 337.49,385.465C348.423,379.588 361.133,376.65 375.62,376.65C397.213,376.65 414.297,380.75 426.87,388.95C439.443,397.15 448.6,408.22 454.34,422.16C460.627,408.22 469.92,397.15 482.22,388.95C494.52,380.75 509.28,376.65 526.5,376.65C541.533,376.65 554.585,379.11 565.655,384.03C576.725,388.95 585.745,395.715 592.715,404.325C599.685,412.935 604.878,423.048 608.295,434.665C611.712,446.282 613.42,458.787 613.42,472.18L613.83,557.05C613.83,561.97 614.513,566.275 615.88,569.965C617.247,573.655 619.843,575.5 623.67,575.5C627.497,575.5 630.367,576.593 632.28,578.78C634.193,580.967 635.15,583.29 635.15,585.75C635.15,588.21 634.193,590.533 632.28,592.72C630.367,594.907 627.497,596 623.67,596L542.08,596C538.253,596 535.315,594.907 533.265,592.72C531.215,590.533 530.19,588.21 530.19,585.75C530.19,583.29 531.215,580.967 533.265,578.78C535.315,576.593 538.253,575.5 542.08,575.5C545.907,575.5 548.572,573.655 550.075,569.965C551.578,566.275 552.33,561.97 552.33,557.05L551.92,462.34C551.92,454.687 551.168,447.443 549.665,440.61C548.162,433.777 545.77,427.9 542.49,422.98C539.21,418.06 534.7,414.165 528.96,411.295C523.22,408.425 515.977,406.99 507.23,406.99C500.67,406.99 494.657,408.152 489.19,410.475C483.723,412.798 478.94,415.942 474.84,419.905C470.74,423.868 467.528,428.583 465.205,434.05C462.882,439.517 461.72,445.393 461.72,451.68C461.993,454.96 462.198,458.308 462.335,461.725C462.472,465.142 462.677,468.627 462.95,472.18L462.95,556.64C462.95,561.56 463.702,565.865 465.205,569.555C466.708,573.245 469.373,575.09 473.2,575.09C477.027,575.09 479.897,576.183 481.81,578.37C483.723,580.557 484.68,582.948 484.68,585.545C484.68,588.142 483.723,590.533 481.81,592.72C479.897,594.907 477.027,596 473.2,596L391.2,596C387.373,596 384.503,594.907 382.59,592.72C380.677,590.533 379.72,588.142 379.72,585.545C379.72,582.948 380.677,580.557 382.59,578.37C384.503,576.183 387.373,575.09 391.2,575.09C395.027,575.09 397.692,573.313 399.195,569.76C400.698,566.207 401.45,561.833 401.45,556.64L401.04,461.93C401.04,454.277 400.288,447.102 398.785,440.405C397.282,433.708 394.89,427.9 391.61,422.98C388.33,418.06 383.82,414.165 378.08,411.295C372.34,408.425 365.097,406.99 356.35,406.99C349.79,406.99 343.708,408.152 338.105,410.475C332.502,412.798 327.718,416.01 323.755,420.11C319.792,424.21 316.648,428.993 314.325,434.46C312.002,439.927 310.84,445.94 310.84,452.5L310.84,557.05Z" style="fill:rgb(238,238,238);"/>
            <path d="M851.63,421.75C851.63,430.77 849.17,437.535 844.25,442.045C839.33,446.555 833.727,448.947 827.44,449.22C821.153,449.493 815.14,447.717 809.4,443.89C803.66,440.063 799.97,434.323 798.33,426.67C796.417,418.197 793.478,411.363 789.515,406.17C785.552,400.977 779.88,398.38 772.5,398.38C767.033,398.38 761.908,399.952 757.125,403.095C752.342,406.238 748.173,410.407 744.62,415.6C741.067,420.793 738.265,426.602 736.215,433.025C734.165,439.448 733.14,445.94 733.14,452.5L733.14,557.05C733.14,561.97 733.892,566.275 735.395,569.965C736.898,573.655 739.563,575.5 743.39,575.5C747.217,575.5 750.087,576.593 752,578.78C753.913,580.967 754.87,583.29 754.87,585.75C754.87,588.21 753.913,590.533 752,592.72C750.087,594.907 747.217,596 743.39,596L661.8,596C657.973,596 655.035,594.907 652.985,592.72C650.935,590.533 649.91,588.21 649.91,585.75C649.91,583.29 650.935,580.967 652.985,578.78C655.035,576.593 657.973,575.5 661.8,575.5C665.627,575.5 668.292,573.655 669.795,569.965C671.298,566.275 672.05,561.97 672.05,557.05L671.23,448.81C671.23,443.89 670.478,439.653 668.975,436.1C667.472,432.547 664.807,430.77 660.98,430.77C656.06,430.77 652.643,429.882 650.73,428.105C648.817,426.328 647.86,423.937 647.86,420.93C647.86,417.103 648.885,414.233 650.935,412.32C652.985,410.407 656.333,408.357 660.98,406.17L711.82,379.93C718.107,376.923 723.232,376.103 727.195,377.47C731.158,378.837 733.14,382.663 733.14,388.95L733.14,407.81C739.7,398.243 747.968,390.658 757.945,385.055C767.922,379.452 779.88,376.65 793.82,376.65C800.107,376.65 806.667,377.675 813.5,379.725C820.333,381.775 826.552,384.713 832.155,388.54C837.758,392.367 842.405,397.082 846.095,402.685C849.785,408.288 851.63,414.643 851.63,421.75Z" style="fill:rgb(238,238,238);"/>
            <path d="M859.42,270.46L912.31,242.99C916.137,240.803 920.237,240.325 924.61,241.555C928.983,242.785 931.17,246.817 931.17,253.65L931.17,557.05C931.17,561.97 931.922,566.275 933.425,569.965C934.928,573.655 937.593,575.5 941.42,575.5C945.247,575.5 948.117,576.593 950.03,578.78C951.943,580.967 952.9,583.29 952.9,585.75C952.9,588.21 951.943,590.533 950.03,592.72C948.117,594.907 945.247,596 941.42,596L859.42,596C855.593,596 852.723,594.907 850.81,592.72C848.897,590.533 847.94,588.21 847.94,585.75C847.94,583.29 848.897,580.967 850.81,578.78C852.723,576.593 855.593,575.5 859.42,575.5C863.247,575.5 865.912,573.655 867.415,569.965C868.918,566.275 869.67,561.97 869.67,557.05L869.67,313.51C869.67,308.59 868.918,304.285 867.415,300.595C865.912,296.905 863.247,295.06 859.42,295.06C854.5,295.06 851.083,294.172 849.17,292.395C847.257,290.618 846.3,288.227 846.3,285.22C846.3,281.393 847.325,278.523 849.375,276.61C851.425,274.697 854.773,272.647 859.42,270.46Z" style="fill:rgb(238,238,238);"/>
        </g>
    </g>
</svg>
