<?xml version="1.0" encoding="UTF-8" standalone="no"?>
<svg width="100%" height="100%" viewBox="0 0 800 800" version="1.1" xmlns="http://www.w3.org/2000/svg">
    <g transform="matrix(1,0,0,1,-188,31.675)">
        <path d="M411.7,199.69C411.7,206.25 409.445,212.332 404.935,217.935C400.425,223.538 394.207,226.34 386.28,226.34C379.72,226.34 373.433,224.29 367.42,220.19C361.407,216.09 358.4,209.12 358.4,199.28C358.4,192.72 357.443,186.98 355.53,182.06C353.617,177.14 351.02,173.177 347.74,170.17C344.46,167.163 340.838,164.908 336.875,163.405C332.912,161.902 328.88,161.15 324.78,161.15C316.853,161.15 309.542,163.542 302.845,168.325C296.148,173.108 292.8,180.01 292.8,189.03C292.8,196.957 295.943,203.585 302.23,208.915C308.517,214.245 316.375,219.233 325.805,223.88C335.235,228.527 345.485,233.105 356.555,237.615C367.625,242.125 377.875,247.455 387.305,253.605C396.735,259.755 404.593,267.067 410.88,275.54C417.167,284.013 420.31,294.4 420.31,306.7C420.31,318.727 417.372,328.84 411.495,337.04C405.618,345.24 397.897,351.937 388.33,357.13C378.763,362.323 367.967,366.013 355.94,368.2C343.913,370.387 331.613,371.48 319.04,371.48C307.013,371.48 295.26,370.25 283.78,367.79C272.3,365.33 262.05,361.64 253.03,356.72C244.01,351.8 236.767,345.65 231.3,338.27C225.833,330.89 223.1,322.28 223.1,312.44C223.1,305.88 225.355,299.798 229.865,294.195C234.375,288.592 240.593,285.79 248.52,285.79C255.08,285.79 261.367,287.84 267.38,291.94C273.393,296.04 276.4,303.01 276.4,312.85C276.4,319.137 277.63,324.672 280.09,329.455C282.55,334.238 285.83,338.202 289.93,341.345C294.03,344.488 298.745,346.88 304.075,348.52C309.405,350.16 314.803,350.98 320.27,350.98C332.023,350.98 341.385,348.725 348.355,344.215C355.325,339.705 358.81,332.667 358.81,323.1C358.81,316.54 355.667,310.8 349.38,305.88C343.093,300.96 335.235,296.313 325.805,291.94C316.375,287.567 306.193,283.057 295.26,278.41C284.327,273.763 274.145,268.16 264.715,261.6C255.285,255.04 247.358,247.318 240.935,238.435C234.512,229.552 231.3,218.55 231.3,205.43C231.3,194.497 233.897,184.93 239.09,176.73C244.283,168.53 251.185,161.765 259.795,156.435C268.405,151.105 278.177,147.142 289.11,144.545C300.043,141.948 311.25,140.65 322.73,140.65C333.937,140.65 344.87,141.88 355.53,144.34C366.19,146.8 375.688,150.49 384.025,155.41C392.362,160.33 399.058,166.48 404.115,173.86C409.172,181.24 411.7,189.85 411.7,199.69Z"
              fill="#EEEEEE"/>
        <path d="M444.91,202.97C444.637,192.31 447.438,183.085 453.315,175.295C459.192,167.505 466.708,161.082 475.865,156.025C485.022,150.968 494.93,147.142 505.59,144.545C516.25,141.948 526.227,140.65 535.52,140.65C551.1,140.65 565.04,143.042 577.34,147.825C589.64,152.608 600.027,159.237 608.5,167.71C616.973,176.183 623.465,186.228 627.975,197.845C632.485,209.462 634.74,222.24 634.74,236.18L634.74,321.05C635.013,325.97 635.697,330.343 636.79,334.17C637.883,337.997 640.617,339.91 644.99,339.91C648.817,339.91 651.687,340.935 653.6,342.985C655.513,345.035 656.47,347.358 656.47,349.955C656.47,352.552 655.513,354.875 653.6,356.925C651.687,358.975 648.817,360 644.99,360L590.87,360C584.037,360 579.527,358.975 577.34,356.925C575.153,354.875 573.787,351.663 573.24,347.29C565.04,355.217 555.337,361.23 544.13,365.33C532.923,369.43 521.17,371.48 508.87,371.48C498.483,371.48 488.507,370.045 478.94,367.175C469.373,364.305 460.763,359.863 453.11,353.85C445.73,348.11 439.785,341.072 435.275,332.735C430.765,324.398 428.51,315.037 428.51,304.65C428.51,293.17 431.243,283.262 436.71,274.925C442.177,266.588 449.215,259.755 457.825,254.425C466.435,249.095 476.002,245.2 486.525,242.74C497.048,240.28 507.23,239.187 517.07,239.46C527.183,239.733 537.023,240.827 546.59,242.74C556.157,244.653 564.903,247.523 572.83,251.35L572.83,232.9C572.83,225.793 572.625,218.072 572.215,209.735C571.805,201.398 570.37,193.608 567.91,186.365C565.45,179.122 561.555,173.108 556.225,168.325C550.895,163.542 543.173,161.15 533.06,161.15C526.773,161.15 521.443,162.312 517.07,164.635C512.697,166.958 509.075,170.033 506.205,173.86C503.335,177.687 501.285,182.128 500.055,187.185C498.825,192.242 498.21,197.503 498.21,202.97C498.21,210.35 495.408,216.432 489.805,221.215C484.202,225.998 477.847,228.39 470.74,228.39C462.813,228.39 456.595,225.793 452.085,220.6C447.575,215.407 445.183,209.53 444.91,202.97ZM572.83,274.72C567.09,269.8 560.872,266.178 554.175,263.855C547.478,261.532 540.85,260.37 534.29,260.37C528.823,260.37 523.425,261.327 518.095,263.24C512.765,265.153 508.05,267.818 503.95,271.235C499.85,274.652 496.502,278.888 493.905,283.945C491.308,289.002 490.01,294.673 490.01,300.96C490.01,312.713 493.973,322.622 501.9,330.685C509.827,338.748 519.667,342.78 531.42,342.78C538.8,342.78 546.18,341.208 553.56,338.065C560.94,334.922 567.5,329.797 573.24,322.69L572.83,274.72Z"
              fill="#EEEEEE"/>
        <path d="M894.27,151.72C897.823,151.72 900.557,152.813 902.47,155C904.383,157.187 905.34,159.51 905.34,161.97C905.34,164.43 904.452,166.753 902.675,168.94C900.898,171.127 898.097,172.22 894.27,172.22C888.257,172.22 884.02,173.86 881.56,177.14C879.1,180.42 876.503,185.203 873.77,191.49L808.58,344.83C806.393,350.023 803.66,353.85 800.38,356.31C797.1,358.77 791.497,360 783.57,360L753.64,360C745.713,360 740.11,358.77 736.83,356.31C733.55,353.85 730.817,350.023 728.63,344.83L663.85,191.49C661.117,185.203 658.52,180.42 656.06,177.14C653.6,173.86 649.363,172.22 643.35,172.22C639.523,172.22 636.653,171.127 634.74,168.94C632.827,166.753 631.87,164.43 631.87,161.97C631.87,159.51 632.827,157.187 634.74,155C636.653,152.813 639.523,151.72 643.35,151.72L739.29,151.72C743.117,151.72 745.987,152.813 747.9,155C749.813,157.187 750.77,159.51 750.77,161.97C750.77,164.43 749.813,166.753 747.9,168.94C745.987,171.127 743.117,172.22 739.29,172.22C733.003,172.22 729.382,174.065 728.425,177.755C727.468,181.445 728.22,186.023 730.68,191.49L790.95,334.17L851.22,191.49C853.407,186.023 854.09,181.445 853.27,177.755C852.45,174.065 848.897,172.22 842.61,172.22C838.783,172.22 835.913,171.127 834,168.94C832.087,166.753 831.13,164.43 831.13,161.97C831.13,159.51 832.087,157.187 834,155C835.913,152.813 838.783,151.72 842.61,151.72L894.27,151.72Z"
              fill="#EEEEEE"/>
        <path d="M310.84,557.05C310.84,561.97 311.592,566.275 313.095,569.965C314.598,573.655 317.263,575.5 321.09,575.5C324.917,575.5 327.787,576.593 329.7,578.78C331.613,580.967 332.57,583.29 332.57,585.75C332.57,588.21 331.613,590.533 329.7,592.72C327.787,594.907 324.917,596 321.09,596L239.09,596C235.263,596 232.393,594.907 230.48,592.72C228.567,590.533 227.61,588.21 227.61,585.75C227.61,583.29 228.567,580.967 230.48,578.78C232.393,576.593 235.263,575.5 239.09,575.5C242.917,575.5 245.65,573.655 247.29,569.965C248.93,566.275 249.613,561.97 249.34,557.05L248.93,448.81C248.93,443.89 248.178,439.653 246.675,436.1C245.172,432.547 242.507,430.77 238.68,430.77C233.76,430.77 230.275,429.882 228.225,428.105C226.175,426.328 225.15,423.937 225.15,420.93C225.15,417.103 226.243,414.233 228.43,412.32C230.617,410.407 234.033,408.357 238.68,406.17L289.52,379.93C295.807,376.923 300.863,376.103 304.69,377.47C308.517,378.837 310.43,382.663 310.43,388.95L310.43,409.45C317.537,399.337 326.557,391.342 337.49,385.465C348.423,379.588 361.133,376.65 375.62,376.65C397.213,376.65 414.297,380.75 426.87,388.95C439.443,397.15 448.6,408.22 454.34,422.16C460.627,408.22 469.92,397.15 482.22,388.95C494.52,380.75 509.28,376.65 526.5,376.65C541.533,376.65 554.585,379.11 565.655,384.03C576.725,388.95 585.745,395.715 592.715,404.325C599.685,412.935 604.878,423.048 608.295,434.665C611.712,446.282 613.42,458.787 613.42,472.18L613.83,557.05C613.83,561.97 614.513,566.275 615.88,569.965C617.247,573.655 619.843,575.5 623.67,575.5C627.497,575.5 630.367,576.593 632.28,578.78C634.193,580.967 635.15,583.29 635.15,585.75C635.15,588.21 634.193,590.533 632.28,592.72C630.367,594.907 627.497,596 623.67,596L542.08,596C538.253,596 535.315,594.907 533.265,592.72C531.215,590.533 530.19,588.21 530.19,585.75C530.19,583.29 531.215,580.967 533.265,578.78C535.315,576.593 538.253,575.5 542.08,575.5C545.907,575.5 548.572,573.655 550.075,569.965C551.578,566.275 552.33,561.97 552.33,557.05L551.92,462.34C551.92,454.687 551.168,447.443 549.665,440.61C548.162,433.777 545.77,427.9 542.49,422.98C539.21,418.06 534.7,414.165 528.96,411.295C523.22,408.425 515.977,406.99 507.23,406.99C500.67,406.99 494.657,408.152 489.19,410.475C483.723,412.798 478.94,415.942 474.84,419.905C470.74,423.868 467.528,428.583 465.205,434.05C462.882,439.517 461.72,445.393 461.72,451.68C461.993,454.96 462.198,458.308 462.335,461.725C462.472,465.142 462.677,468.627 462.95,472.18L462.95,556.64C462.95,561.56 463.702,565.865 465.205,569.555C466.708,573.245 469.373,575.09 473.2,575.09C477.027,575.09 479.897,576.183 481.81,578.37C483.723,580.557 484.68,582.948 484.68,585.545C484.68,588.142 483.723,590.533 481.81,592.72C479.897,594.907 477.027,596 473.2,596L391.2,596C387.373,596 384.503,594.907 382.59,592.72C380.677,590.533 379.72,588.142 379.72,585.545C379.72,582.948 380.677,580.557 382.59,578.37C384.503,576.183 387.373,575.09 391.2,575.09C395.027,575.09 397.692,573.313 399.195,569.76C400.698,566.207 401.45,561.833 401.45,556.64L401.04,461.93C401.04,454.277 400.288,447.102 398.785,440.405C397.282,433.708 394.89,427.9 391.61,422.98C388.33,418.06 383.82,414.165 378.08,411.295C372.34,408.425 365.097,406.99 356.35,406.99C349.79,406.99 343.708,408.152 338.105,410.475C332.502,412.798 327.718,416.01 323.755,420.11C319.792,424.21 316.648,428.993 314.325,434.46C312.002,439.927 310.84,445.94 310.84,452.5L310.84,557.05Z"
              fill="#EEEEEE"/>
        <path d="M851.63,421.75C851.63,430.77 849.17,437.535 844.25,442.045C839.33,446.555 833.727,448.947 827.44,449.22C821.153,449.493 815.14,447.717 809.4,443.89C803.66,440.063 799.97,434.323 798.33,426.67C796.417,418.197 793.478,411.363 789.515,406.17C785.552,400.977 779.88,398.38 772.5,398.38C767.033,398.38 761.908,399.952 757.125,403.095C752.342,406.238 748.173,410.407 744.62,415.6C741.067,420.793 738.265,426.602 736.215,433.025C734.165,439.448 733.14,445.94 733.14,452.5L733.14,557.05C733.14,561.97 733.892,566.275 735.395,569.965C736.898,573.655 739.563,575.5 743.39,575.5C747.217,575.5 750.087,576.593 752,578.78C753.913,580.967 754.87,583.29 754.87,585.75C754.87,588.21 753.913,590.533 752,592.72C750.087,594.907 747.217,596 743.39,596L661.8,596C657.973,596 655.035,594.907 652.985,592.72C650.935,590.533 649.91,588.21 649.91,585.75C649.91,583.29 650.935,580.967 652.985,578.78C655.035,576.593 657.973,575.5 661.8,575.5C665.627,575.5 668.292,573.655 669.795,569.965C671.298,566.275 672.05,561.97 672.05,557.05L671.23,448.81C671.23,443.89 670.478,439.653 668.975,436.1C667.472,432.547 664.807,430.77 660.98,430.77C656.06,430.77 652.643,429.882 650.73,428.105C648.817,426.328 647.86,423.937 647.86,420.93C647.86,417.103 648.885,414.233 650.935,412.32C652.985,410.407 656.333,408.357 660.98,406.17L711.82,379.93C718.107,376.923 723.232,376.103 727.195,377.47C731.158,378.837 733.14,382.663 733.14,388.95L733.14,407.81C739.7,398.243 747.968,390.658 757.945,385.055C767.922,379.452 779.88,376.65 793.82,376.65C800.107,376.65 806.667,377.675 813.5,379.725C820.333,381.775 826.552,384.713 832.155,388.54C837.758,392.367 842.405,397.082 846.095,402.685C849.785,408.288 851.63,414.643 851.63,421.75Z"
              fill="#EEEEEE"/>
        <path d="M859.42,270.46L912.31,242.99C916.137,240.803 920.237,240.325 924.61,241.555C928.983,242.785 931.17,246.817 931.17,253.65L931.17,557.05C931.17,561.97 931.922,566.275 933.425,569.965C934.928,573.655 937.593,575.5 941.42,575.5C945.247,575.5 948.117,576.593 950.03,578.78C951.943,580.967 952.9,583.29 952.9,585.75C952.9,588.21 951.943,590.533 950.03,592.72C948.117,594.907 945.247,596 941.42,596L859.42,596C855.593,596 852.723,594.907 850.81,592.72C848.897,590.533 847.94,588.21 847.94,585.75C847.94,583.29 848.897,580.967 850.81,578.78C852.723,576.593 855.593,575.5 859.42,575.5C863.247,575.5 865.912,573.655 867.415,569.965C868.918,566.275 869.67,561.97 869.67,557.05L869.67,313.51C869.67,308.59 868.918,304.285 867.415,300.595C865.912,296.905 863.247,295.06 859.42,295.06C854.5,295.06 851.083,294.172 849.17,292.395C847.257,290.618 846.3,288.227 846.3,285.22C846.3,281.393 847.325,278.523 849.375,276.61C851.425,274.697 854.773,272.647 859.42,270.46Z"
              fill="#EEEEEE"/>
    </g>
</svg>
