<?xml version="1.0" encoding="UTF-8" standalone="no"?>
<svg width="100%" height="100%" viewBox="0 0 800 800" version="1.1" xmlns="http://www.w3.org/2000/svg">
    <g transform="matrix(1,0,0,1,-69.5,293.5)">
        <path d="M689,-31C689,-15 683.5,-0.167 672.5,13.5C661.5,27.167 646.333,34 627,34C611,34 595.667,29 581,19C566.333,9 559,-8 559,-32C559,-48 556.667,-62 552,-74C547.333,-86 541,-95.667 533,-103C525,-110.333 516.167,-115.833 506.5,-119.5C496.833,-123.167 487,-125 477,-125C457.667,-125 439.833,-119.167 423.5,-107.5C407.167,-95.833 399,-79 399,-57C399,-37.667 406.667,-21.5 422,-8.5C437.333,4.5 456.5,16.667 479.5,28C502.5,39.333 527.5,50.5 554.5,61.5C581.5,72.5 606.5,85.5 629.5,100.5C652.5,115.5 671.667,133.333 687,154C702.333,174.667 710,200 710,230C710,259.333 702.833,284 688.5,304C674.167,324 655.333,340.333 632,353C608.667,365.667 582.333,374.667 553,380C523.667,385.333 493.667,388 463,388C433.667,388 405,385 377,379C349,373 324,364 302,352C280,340 262.333,325 249,307C235.667,289 229,268 229,244C229,228 234.5,213.167 245.5,199.5C256.5,185.833 271.667,179 291,179C307,179 322.333,184 337,194C351.667,204 359,221 359,245C359,260.333 362,273.833 368,285.5C374,297.167 382,306.833 392,314.5C402,322.167 413.5,328 426.5,332C439.5,336 452.667,338 466,338C494.667,338 517.5,332.5 534.5,321.5C551.5,310.5 560,293.333 560,270C560,254 552.333,240 537,228C521.667,216 502.5,204.667 479.5,194C456.5,183.333 431.667,172.333 405,161C378.333,149.667 353.5,136 330.5,120C307.5,104 288.167,85.167 272.5,63.5C256.833,41.833 249,15 249,-17C249,-43.667 255.333,-67 268,-87C280.667,-107 297.5,-123.5 318.5,-136.5C339.5,-149.5 363.333,-159.167 390,-165.5C416.667,-171.833 444,-175 472,-175C499.333,-175 526,-172 552,-166C578,-160 601.167,-151 621.5,-139C641.833,-127 658.167,-112 670.5,-94C682.833,-76 689,-55 689,-31Z"
              fill="rgb(0,167,170)"/>
    </g>
</svg>
